<svg width="75" height="35" viewBox="0 0 75 35" fill="none" xmlns="http://www.w3.org/2000/svg">
<path fill-rule="evenodd" clip-rule="evenodd" d="M25.9906 0.231445C29.0718 0.231445 31.4321 0.784484 33.0714 1.89056C34.7108 2.97689 35.5305 4.67551 35.5305 6.98642C35.5305 8.42827 35.1947 9.60348 34.5232 10.512C33.8714 11.4009 32.9233 12.102 31.679 12.6156C32.0938 13.1291 32.5283 13.7216 32.9826 14.3932C33.4369 15.045 33.8813 15.7363 34.3158 16.4671C34.615 16.9355 34.9057 17.421 35.1878 17.9237L30.3649 18.828C30.0105 18.1816 29.6387 17.5527 29.2496 16.9411C28.8545 16.2893 28.4595 15.677 28.0645 15.1042C27.6694 14.5117 27.2744 13.9784 26.8794 13.5044H24.5981V21H21.6523C21.0539 20.7655 20.437 20.6491 19.9763 20.6009V0.764733C20.9836 0.567219 22.0205 0.428959 23.0871 0.349954C24.1735 0.270948 25.1413 0.231445 25.9906 0.231445ZM43.4476 20.6732C44.8513 20.6113 46.0249 20.8831 46.8804 21.4006C47.0938 21.4101 47.3119 21.4148 47.5348 21.4148C48.9964 21.4148 50.2605 21.2173 51.327 20.8223C52.3936 20.4272 53.2726 19.8742 53.9639 19.1631C54.6552 18.4323 55.1687 17.5633 55.5045 16.556C55.8402 15.5486 56.0081 14.4426 56.0081 13.2377V0.468462H51.3863V12.8526C51.3863 14.5117 51.0308 15.6869 50.3197 16.3782C49.6284 17.0695 48.7199 17.4151 47.594 17.4151C47.041 17.4151 46.5275 17.3361 46.0534 17.1781C45.5991 17.0201 45.2041 16.7634 44.8683 16.4078C44.5523 16.0326 44.2956 15.5585 44.098 14.9857C43.9203 14.3932 43.8314 13.6821 43.8314 12.8526V0.468462H39.2096V13.2377C39.2096 14.4426 39.3676 15.5486 39.6836 16.556C40.0194 17.5435 40.523 18.4027 41.1946 19.1335C41.8064 19.7628 42.5574 20.276 43.4476 20.6732ZM61.3756 20.9999C62.2347 20.7333 63.884 20.4997 65.9686 21H68.286C69.7144 20.5092 71.465 20.5666 73.0205 21H75V17.1189H65.0749V12.1712H73.2816V8.37889H65.0749V4.34961H74.3186V0.468462H60.4531V21H61.3751L61.3756 20.9999ZM6.19206 20.905C7.23578 20.6679 9.11497 20.4406 10.8139 20.8415V4.40886H17.0059V0.468462H0V4.40886H6.19206V20.905ZM26.2572 4.17185C25.9214 4.17185 25.6153 4.18172 25.3388 4.20147C25.082 4.22122 24.8351 4.24098 24.5981 4.26073V9.83062H25.9017C27.6398 9.83062 28.8842 9.61335 29.6347 9.17882C30.3853 8.74429 30.7605 8.00361 30.7605 6.95679C30.7605 5.94947 30.3754 5.23842 29.6051 4.82364C28.8545 4.38911 27.7386 4.17185 26.2572 4.17185ZM37.74 22.913H34.3766V20.1642L32.7888 20.4373V28.3593C32.7888 28.9512 32.8343 29.4748 32.9254 29.93C33.0278 30.374 33.1985 30.7496 33.4376 31.0569C33.6766 31.3642 33.9896 31.5975 34.3766 31.7569C34.775 31.9049 35.2758 31.9788 35.879 31.9788C36.3912 31.9788 36.8465 31.9162 37.2449 31.791C37.6433 31.6772 37.9221 31.5805 38.0815 31.5008L37.7742 30.1861C37.6603 30.2317 37.4555 30.3113 37.1595 30.4252C36.875 30.5276 36.4937 30.5788 36.0156 30.5788C35.7424 30.5788 35.5034 30.5447 35.2985 30.4764C35.0937 30.4081 34.9229 30.2943 34.7863 30.1349C34.6498 29.9642 34.5473 29.7366 34.479 29.452C34.4107 29.1561 34.3766 28.7861 34.3766 28.3422V24.2447H37.74V22.913ZM20.356 30.63C20.0714 30.6414 19.7414 30.6471 19.3658 30.6471C18.7397 30.6471 18.2446 30.539 17.8804 30.3227C17.5162 30.0951 17.334 29.6967 17.334 29.1276C17.334 28.8203 17.408 28.5756 17.556 28.3935C17.704 28.2 17.8861 28.052 18.1023 27.9496C18.33 27.8357 18.5747 27.7617 18.8365 27.7276C19.1097 27.6935 19.3658 27.6764 19.6048 27.6764C19.969 27.6764 20.2763 27.6991 20.5267 27.7447C20.7885 27.7788 20.9763 27.8244 21.0902 27.8813V30.5276C20.8967 30.5731 20.6519 30.6073 20.356 30.63ZM20.8341 22.9471C20.4015 22.7764 19.8666 22.691 19.2292 22.691C18.6714 22.691 18.1536 22.7365 17.6755 22.8276C17.1975 22.9073 16.856 22.9926 16.6511 23.0837L16.8389 24.3983C17.0324 24.3186 17.3227 24.2447 17.7097 24.1764C18.108 24.0967 18.569 24.0569 19.0926 24.0569C19.5023 24.0569 19.8324 24.1195 20.0828 24.2447C20.3446 24.3585 20.5495 24.5178 20.6975 24.7227C20.8454 24.9162 20.9479 25.1439 21.0048 25.4056C21.0617 25.656 21.0902 25.9121 21.0902 26.1739V26.6178C21.0446 26.6065 20.9649 26.5894 20.8511 26.5666C20.7373 26.5439 20.6007 26.5211 20.4414 26.4983C20.2934 26.4642 20.134 26.4414 19.9633 26.43C19.7926 26.4073 19.6275 26.3959 19.4682 26.3959C18.9674 26.3959 18.4893 26.4471 18.034 26.5495C17.5788 26.652 17.1804 26.8113 16.8389 27.0276C16.4975 27.2439 16.2243 27.5284 16.0194 27.8813C15.8259 28.2341 15.7292 28.6552 15.7292 29.1447C15.7292 29.6569 15.8145 30.0951 15.9853 30.4593C16.156 30.8235 16.395 31.1195 16.7023 31.3471C17.0096 31.5634 17.3739 31.7227 17.795 31.8252C18.2162 31.9276 18.6771 31.9788 19.1779 31.9788C19.5308 31.9788 19.8836 31.9618 20.2365 31.9276C20.6007 31.9049 20.9365 31.8764 21.2438 31.8422C21.5511 31.8081 21.8243 31.774 22.0633 31.7398C22.3137 31.6943 22.5072 31.6601 22.6438 31.6374V26.0886C22.6438 25.5878 22.5869 25.1325 22.4731 24.7227C22.3593 24.3016 22.1658 23.943 21.8926 23.6471C21.6308 23.3398 21.278 23.1064 20.8341 22.9471ZM11.1899 24.9788C11.7021 25.5365 11.9582 26.3333 11.9582 27.3691C11.9582 27.8244 11.9127 28.2512 11.8217 28.6496C11.7306 29.0365 11.5826 29.378 11.3778 29.6739C11.1729 29.9585 10.9054 30.1861 10.5753 30.3569C10.2566 30.5162 9.86962 30.5959 9.41433 30.5959C8.98181 30.5959 8.58343 30.5219 8.2192 30.374C7.85498 30.226 7.57611 30.0723 7.38262 29.913V24.313C7.54197 24.2674 7.75254 24.2276 8.01433 24.1934C8.2875 24.1593 8.66311 24.1422 9.14116 24.1422C9.99482 24.1422 10.6777 24.4211 11.1899 24.9788ZM13.3412 29.23C13.5233 28.6609 13.6143 28.0406 13.6143 27.3691C13.6143 26.652 13.5062 26.0089 13.29 25.4398C13.0851 24.8593 12.7891 24.3699 12.4021 23.9715C12.0152 23.5731 11.5485 23.2658 11.0021 23.0495C10.4558 22.8333 9.84116 22.7251 9.15823 22.7251C8.41839 22.7251 7.76392 22.7821 7.19481 22.8959C6.63708 22.9983 6.17042 23.0951 5.79481 23.1861V34.9496H7.38262V31.3983C7.57611 31.5235 7.86636 31.6544 8.25335 31.791C8.65173 31.9276 9.10701 31.9959 9.61921 31.9959C10.2566 31.9959 10.82 31.8821 11.3095 31.6544C11.8103 31.4268 12.2314 31.1081 12.5729 30.6983C12.9143 30.2886 13.1704 29.7992 13.3412 29.23ZM29.0712 22.7251C29.2078 22.7251 29.3615 22.7365 29.5322 22.7593C29.7143 22.7707 29.8907 22.7934 30.0615 22.8276C30.2322 22.8503 30.3859 22.8788 30.5224 22.913C30.6704 22.9357 30.7785 22.9585 30.8468 22.9812L30.5737 24.3642C30.4485 24.3186 30.2379 24.2674 29.9419 24.2105C29.6574 24.1422 29.2875 24.1081 28.8322 24.1081C28.5363 24.1081 28.2403 24.1422 27.9444 24.2105C27.6598 24.2674 27.472 24.3073 27.381 24.33V31.791H25.7932V23.2886C26.1688 23.152 26.6354 23.0268 27.1932 22.913C27.7509 22.7877 28.3769 22.7251 29.0712 22.7251ZM40.2727 23.1691C40.6369 23.078 41.1207 22.9812 41.7239 22.8788C42.3272 22.7764 43.0215 22.7251 43.8069 22.7251C44.5126 22.7251 45.0987 22.8276 45.5654 23.0325C46.0321 23.226 46.402 23.5048 46.6752 23.8691C46.9597 24.2219 47.1589 24.6487 47.2727 25.1495C47.3866 25.6504 47.4435 26.2024 47.4435 26.8056V31.791H45.8557V27.1471C45.8557 26.6008 45.8158 26.1341 45.7361 25.7471C45.6679 25.3601 45.5483 25.0471 45.3776 24.8081C45.2069 24.5691 44.9792 24.3983 44.6947 24.2959C44.4101 24.1821 44.0573 24.1252 43.6361 24.1252C43.4654 24.1252 43.289 24.1308 43.1069 24.1422C42.9248 24.1536 42.7483 24.1707 42.5776 24.1934C42.4183 24.2048 42.2703 24.2219 42.1337 24.2447C42.0085 24.2674 41.9174 24.2845 41.8605 24.2959V31.791H40.2727V23.1691ZM50.435 25.3203C50.2074 25.9008 50.0936 26.5837 50.0936 27.3691C50.0936 28.0406 50.1789 28.6609 50.3497 29.23C50.5318 29.7878 50.8049 30.2715 51.1692 30.6813C51.5334 31.091 51.9944 31.4154 52.5521 31.6544C53.1212 31.8821 53.7928 31.9959 54.5667 31.9959C55.1814 31.9959 55.7277 31.939 56.2058 31.8252C56.6952 31.7114 57.0367 31.6032 57.2302 31.5008L57.0082 30.1691C56.8147 30.2601 56.5245 30.3569 56.1375 30.4593C55.7619 30.5504 55.2952 30.5959 54.7375 30.5959C53.7472 30.5959 53.0188 30.3569 52.5521 29.8788C52.0854 29.4008 51.818 28.7008 51.7497 27.7788H57.8277C57.8391 27.6878 57.8448 27.591 57.8448 27.4886V27.2154C57.8448 25.6902 57.5261 24.5577 56.8887 23.8178C56.2513 23.0666 55.335 22.691 54.1399 22.691C53.6277 22.691 53.1269 22.7877 52.6375 22.9812C52.148 23.1747 51.7155 23.465 51.3399 23.852C50.9643 24.239 50.6627 24.7284 50.435 25.3203ZM55.6424 24.7398C56.018 25.1951 56.2001 25.7813 56.1887 26.4983H51.7838C51.818 26.191 51.8862 25.8894 51.9887 25.5934C52.1025 25.2975 52.2562 25.0357 52.4497 24.8081C52.6432 24.5804 52.8765 24.3983 53.1497 24.2617C53.4342 24.1138 53.7586 24.0398 54.1228 24.0398C54.7716 24.0398 55.2781 24.2731 55.6424 24.7398ZM63.9159 22.7251C64.0525 22.7251 64.2062 22.7365 64.3769 22.7593C64.559 22.7707 64.7355 22.7934 64.9062 22.8276C65.0769 22.8503 65.2306 22.8788 65.3672 22.913C65.5151 22.9357 65.6233 22.9585 65.6916 22.9812L65.4184 24.3642C65.2932 24.3186 65.0826 24.2674 64.7867 24.2105C64.5021 24.1422 64.1322 24.1081 63.6769 24.1081C63.381 24.1081 63.085 24.1422 62.7891 24.2105C62.5046 24.2674 62.3167 24.3073 62.2257 24.33V31.791H60.6379V23.2886C61.0135 23.152 61.4802 23.0268 62.0379 22.913C62.5956 22.7877 63.2216 22.7251 63.9159 22.7251ZM71.2359 30.391C70.9286 30.5618 70.4506 30.6471 69.8018 30.6471C69.1416 30.6471 68.6124 30.5788 68.214 30.4422C67.8156 30.3057 67.5254 30.2032 67.3432 30.1349L67.053 31.5008C67.2124 31.5691 67.514 31.6658 67.9579 31.791C68.4018 31.9276 69.0164 31.9959 69.8018 31.9959C70.9286 31.9959 71.7937 31.7853 72.3969 31.3642C73.0116 30.9431 73.3189 30.3227 73.3189 29.5032C73.3189 29.0821 73.2563 28.7292 73.1311 28.4447C73.0059 28.1487 72.8238 27.8983 72.5847 27.6935C72.3571 27.4886 72.0782 27.3122 71.7481 27.1642C71.4181 27.0048 71.0424 26.8455 70.6213 26.6861C70.3026 26.5723 70.0294 26.4642 69.8018 26.3617C69.5742 26.2593 69.3807 26.1512 69.2213 26.0374C69.0733 25.9121 68.9595 25.7756 68.8798 25.6276C68.8115 25.4796 68.7774 25.3089 68.7774 25.1154C68.7774 24.7398 68.9424 24.4666 69.2725 24.2959C69.6026 24.1138 69.9896 24.0227 70.4335 24.0227C70.9457 24.0227 71.3839 24.0739 71.7481 24.1764C72.1124 24.2674 72.3799 24.3585 72.5506 24.4495L72.8408 23.0837C72.7498 23.0495 72.6189 23.0097 72.4481 22.9642C72.2888 22.9186 72.101 22.8788 71.8847 22.8447C71.6685 22.7991 71.4351 22.765 71.1847 22.7422C70.9343 22.7081 70.6839 22.691 70.4335 22.691C69.4319 22.691 68.6408 22.9243 68.0603 23.391C67.4798 23.8463 67.1896 24.4666 67.1896 25.252C67.1896 25.6504 67.2579 25.9861 67.3945 26.2593C67.5311 26.5325 67.7132 26.7658 67.9408 26.9593C68.1685 27.1528 68.4359 27.3235 68.7433 27.4715C69.062 27.6081 69.392 27.7447 69.7335 27.8813C70.4392 28.1658 70.9457 28.4219 71.253 28.6496C71.5603 28.8772 71.714 29.1845 71.714 29.5715C71.714 29.9471 71.5546 30.2203 71.2359 30.391Z" fill="white"/>
</svg>
